{
.appVersion = "3151";
.formatVersion = 3;
DisplayStrings = (
"அஆஇஈஉஊஎஏஐஒஓஔகஙசஜஞடணதநனபமயரறலளழவஶஷஸஹௐஃ",
"ா",
"இதன் அறிவியல்
பருவநிலை கிரீ",
"வி",
"படியுங்கள் ு"
);
date = "2022-11-25 23:19:09 +0000";
familyName = MaduraiUpdate;
featurePrefixes = (
{
automatic = 1;
code = "languagesystem DFLT dflt;

languagesystem tml2 dflt;
";
name = Languagesystems;
}
);
features = (
{
automatic = 1;
code = "feature akhn;
feature cjct;
feature psts;
";
tag = aalt;
},
{
code = "lookupflag IgnoreMarks;
sub va-tamil iMatra-tamil by va_iMatra-tamil.liga;";
tag = liga;
},
{
code = "lookupflag 0;
script tml2;
lookup Akhn_tamil {
	sub ka-tamil pulli-tamil ssa-tamil by k_ssa-tamil;
	sub sha-tamil pulli-tamil ra-tamil iiMatra-tamil by sh_ra_iiMatra-tamil;
	sub sa-tamil pulli-tamil ra-tamil iiMatra-tamil by sh_ra_iiMatra-tamil;
} Akhn_tamil;
";
tag = akhn;
},
{
code = "script tml2;
lookup cjct_tamil {
	sub ka-tamil pulli-tamil ssa-tamil by k_ssa-tamil;
} cjct_tamil;
";
tag = cjct;
},
{
code = "script tml2;
sub [nga-tamil pa-tamil ya-tamil va-tamil] uMatra-tamil' by uMatra-tamil.alt1;
sub [nya-tamil nna-tamil ta-tamil na-tamil nnna-tamil rra-tamil la-tamil]' uuMatra-tamil by [nya_uMatra-tamil nna_uMatra-tamil ta_uMatra-tamil na_uMatra-tamil nnna_uMatra-tamil rra_uMatra-tamil la_uMatra-tamil];
sub [nya_uMatra-tamil nna_uMatra-tamil ta_uMatra-tamil na_uMatra-tamil nnna_uMatra-tamil rra_uMatra-tamil la_uMatra-tamil] uuMatra-tamil' by uuMatra-tamil.alt1;

#uMatra ligatures
sub ka-tamil uMatra-tamil by ka_uMatra-tamil;
sub ca-tamil uMatra-tamil by ca_uMatra-tamil;
sub tta-tamil uMatra-tamil by tta_uMatra-tamil;
sub ma-tamil uMatra-tamil by ma_uMatra-tamil;
sub ra-tamil uMatra-tamil by ra_uMatra-tamil;
sub ta-tamil uMatra-tamil by ta_uMatra-tamil;
sub rra-tamil uMatra-tamil by rra_uMatra-tamil;
sub la-tamil uMatra-tamil by la_uMatra-tamil;
sub llla-tamil uMatra-tamil by llla_uMatra-tamil;

#uuMatra ligatures
sub ka-tamil uuMatra-tamil by ka_uuMatra-tamil;

glyphs = (
{
glyphname = "ka_uMatra-tamil";
lastChange = "2023-04-05 09:27:19 +0000";
layers = (
{
anchors = (
{
name = imatra;
pos = (460,600);
},
{
name = top;
pos = (265,600);
}
);
layerId = m01;
shapes = (
{
pos = (20,0);
ref = chaMelPaadi;
},
{
pos = (120,0);
ref = chaKeezhPaadi;
},
{
closed = 0;
nodes = (
(480,600,l),
(480,627,ls),
(480,715,o),
(415,780,o),
(327,780,cs),
(203,780,ls),
(115,780,o),
(50,715,o),
(50,627,cs),
(50,13,ls),
(50,-75,o),
(115,-140,o),
(203,-140,cs),
(327,-140,ls),
(415,-140,o),
(480,-75,o),
(480,13,cs),
(480,191,ls),
(480,279,o),
(481,352,o),
(316,352,c)
);
}
);
width = 530;
}
);
metricLeft = "ca-tamil";
metricRight = "ca-tamil";
},
{
glyphname = "ka_uuMatra-tamil";
lastChange = "2023-04-05 09:27:19 +0000";
layers = (
{
anchors = (
{
name = imatra;
pos = (680,600);
},
{
name = top;
pos = (375,600);
}
);
layerId = m01;
shapes = (
{
pos = (-50,0);
ref = chaMelPaadi;
},
{
pos = (50,0);
ref = chaKeezhPaadi;
},
{
closed = 0;
nodes = (
(250,350,l),
(390,350,l),
(478,350,ls),
(549,350,o),
(600,298,o),
(600,227,cs),
(600,222,ls),
(600,151,o),
(549,100,o),
(478,100,cs),
(380,100,ls),
(351,100,o),
(329,79,o),
(329,50,cs),
(329,21,o),
(351,0,o),
(380,0,cs),
(700,0,l)
);
},
{
closed = 1;
nodes = (
(433,160,o),
(464,195,o),
(464,242,cs),
(464,268,ls),
(464,315,o),
(432,350,o),
(389,350,cs),
(346,350,o),
(314,315,o),
(314,268,cs),
(314,242,ls),
(314,195,o),
(346,160,o),
(389,160,cs)
);
}
);
width = 750;
}
);
metricLeft = "ca-tamil";
metricRight = "ca-tamil";
},
{
glyphname = "nga_uuMatra-tamil";
lastChange = "2023-04-05 09:27:19 +0000";
layers = (
{
anchors = (
{
name = imatra;
pos = (570,600);
},
{
name = top;
pos = (320,600);
}
);
layerId = m01;
shapes = (
{
ref = "nga-tamil";
},
{
closed = 0;
nodes = (
(475,446,l)
);
},
{
pos = (325,-210);
ref = kokkiVattam;
},
{
closed = 0;
nodes = (
(375,-210,l),
(498,-210,ls),
(551,-210,o),
(590,-171,o),
(590,-118,cs),
(590,4,ls),
(590,30,o),
(570,50,o),
(544,50,cs),
(510,50,l)
);
},
{
closed = 0;
nodes = (
(510,0,l),
(510,-50,l)
);
}
);
width = 640;
}
);
metricLeft = "ca-tamil";
metricRight = "ca-tamil";
},
{
glyphname = "ca_uMatra-tamil";
lastChange = "2023-04-05 09:27:19 +0000";
layers = (
{
anchors = (
{
name = imatra;
pos = (415,600);
},
{
name = top;
pos = (243,600);
}
);
layerId = m01;
shapes = (
{
ref = "ca-tamil";
},
{
closed = 0;
nodes = (
(360,0,l),
(360,350,l),
(435,350,l)
);
}
);
width = 485;
}
);
metricLeft = "ca-tamil";
metricRight = "ca-tamil";
},
{
glyphname = "ca_uuMatra-tamil";
lastChange = "2023-04-05 09:27:19 +0000";
layers = (
{
anchors = (
{
name = imatra;
pos = (420,600);
},
{
name = top;
pos = (245,600);
}
);
layerId = m01;
shapes = (
{
ref = "ca_uMatra-tamil";
},
{
pos = (175,-210);
ref = kokkiVattam;
},
{
closed = 0;
nodes = (
(225,-210,l),
(348,-210,ls),
(401,-210,o),
(440,-171,o),
(440,-118,cs),
(440,4,ls),
(440,30,o),
(420,50,o),
(394,50,cs),
(360,50,l)
);
}
);
width = 490;
}
);
metricLeft = "ca-tamil";
metricRight = "ca-tamil";
},
{
glyphname = "nya_uMatra-tamil";
lastChange = "2023-04-05 09:27:19 +0000";
layers = (
{
anchors = (
{
name = imatra;
pos = (630,600);
},
{
name = top;
pos = (350,600);
}
);
layerId = m01;
shapes = (
{
closed = 0;
nodes = (
(263,513,l)
);
},
{
closed = 0;
nodes = (
(650,450,l),
(650,-60,l),
(292,-60,ls),
(233,-60,o),
(190,-103,o),
(190,-162,cs),
(190,-199,ls),
(190,-258,o),
(233,-301,o),
(292,-301,cs),
(397,-301,ls),
(485,-301,o),
(550,-236,o),
(550,-148,cs),
(550,155,ls),
(550,292,o),
(550,345,o),
(451,345,cs),
(391,345,o),
(370,305,o),
(370,260,c)
);
},
{
closed = 0;
nodes = (
(370,50,l),
(370,600,l),
(254,600,ls),
(136,600,o),
(50,514,o),
(50,396,cs),
(50,175,l)
);
},
{
pos = (50,50);
ref = naduVattam;
},
{
closed = 0;
nodes = (
(370,600,l),
(490,600,l)
);
}
);
width = 700;
}
);
metricLeft = "ca-tamil";
metricRight = "ca-tamil";
},
{
glyphname = "tta_iMatra-tamil";
lastChange = "2023-04-05 09:27:19 +0000";
layers = (
{
anchors = (
{
name = imatra;
pos = (330,600);
},
{
name = top;
pos = (200,600);
}
);
layerId = m01;
shapes = (
{
closed = 0;
nodes = (
(50,600,l),
(50,0,l),
(350,0,l)
);
},
{
closed = 0;
nodes = (
(280,0,l),
(280,198,ls),
(280,246,o),
(246,280,o),
(200,280,cs),
(154,280,o),
(120,246,o),
(120,198,cs),
(120,82,ls),
(120,34,o),
(154,0,o),
(194,0,cs),
(280,0,l),
(280,-297,l)
);
}
);
width = 400;
}
);
metricLeft = "ca-tamil";
metricRight = "ca-tamil";
},
{
glyphname = "tta_iiMatra-tamil";
lastChange = "2023-04-05 09:27:19 +0000";
layers = (
{
anchors = (
{
name = imatra;
pos = (330,600);
},
{
name = top;
pos = (200,600);
}
);
layerId = m01;
shapes = (
{
closed = 0;
nodes = (
(50,600,l),
(50,0,l),
(350,0,l)
);
},
{
pos = (151,200);
ref = chinnaVattam;
},
{
closed = 0;
nodes = (
(240,0,l),
(188,0,o),
(151,43,o),
(151,102,cs),
(151,298,l)
);
}
);
width = 400;
}
);
metricLeft = "ca-tamil";
metricRight = "ca-tamil";
},
{
glyphname = "tta_uMatra-tamil";
lastChange = "2023-04-05 09:27:19 +0000";
layers = (
{
anchors = (
{
name = imatra;
pos = (390,600);
},
{
name = top;
pos = (230,600);
}
);
layerId = m01;
shapes = (
{
closed = 0;
nodes = (
(410,550,l),
(410,647,ls),
(410,735,o),
(345,800,o),
(257,800,cs),
(203,800,ls),
(115,800,o),
(50,735,o),
(50,647,cs),
(50,153,ls),
(50,65,o),
(115,0,o),
(203,0,cs),
(257,0,ls),
(345,0,o),
(410,65,o),
(410,153,cs),
(410,304,ls),
(410,351,o),
(375,386,o),
(328,386,cs),
(312,386,ls),
(265,386,o),
(230,351,o),
(230,304,cs),
(230,206,l),
(230,600,l)
);
}
);
width = 460;
}
);
metricLeft = "ca-tamil";
metricRight = "ca-tamil";
},
{
glyphname = "tta_uuMatra-tamil";
lastChange = "2023-04-05 09:27:19 +0000";
layers = (
{
anchors = (
{
name = imatra;
pos = (390,600);
},
{
name = top;
pos = (230,600);
}
);
layerId = m01;
shapes = (
{
ref = "tta_uMatra-tamil";
},
{
closed = 0;
nodes = (
(134,479,l)
);
},
{
pos = (310,500);
ref = kokkiVattam;
}
);
width = 460;
}
);
metricLeft = "ca-tamil";
metricRight = "ca-tamil";
},
{
glyphname = "nna_uMatra-tamil";
lastChange = "2023-04-05 09:27:19 +0000";
layers = (
{
anchors = (
{
name = imatra;
pos = (1017,600);
},
{
name = top;
pos = (544,600);
}
);
layerId = m01;
shapes = (
{
pos = (95,0);
ref = chinnaVattam;
},
{
closed = 0;
nodes = (
(172,0,l),
(102,0,o),
(50,51,o),
(50,122,cs),
(50,416,ls),
(50,522,o),
(128,600,o),
(234,600,cs),
(631,600,l)
);
},
{
closed = 1;
nodes = (
(477,511,ls),
(477,562,o),
(440,600,o),
(391,600,cs),
(340,600,o),
(302,562,o),
(302,511,cs),
(302,89,ls),
(302,38,o),
(339,0,o),
(389,0,cs),
(439,0,o),
(477,38,o),
(477,89,cs)
);
},
{
closed = 0;
nodes = (
(631,600,l),
(580,600,o),
(542,562,o),
(542,511,cs),
(542,89,ls),
(542,38,o),
(579,0,o),
(629,0,cs),
(679,0,o),
(717,38,o),
(717,89,cs),
(717,511,ls),
(717,562,o),
(680,600,o),
(631,600,cs),
(755,600,ls),
(826,600,o),
(877,549,o),
(877,478,cs),
(877,-148,ls),
(877,-236,o),
(812,-301,o),
(724,-301,cs),
(436,-301,ls),
(377,-301,o),
(334,-258,o),
(334,-199,cs),
(334,-162,ls),
(334,-103,o),
(377,-60,o),
(436,-60,cs),
(1037,-60,l),
(1037,450,l)
);
}
);
width = 1087;
}
);
metricLeft = "ca-tamil";
metricRight = "ca-tamil";
},
{
glyphname = "ta_uMatra-tamil";
lastChange = "2023-04-05 09:27:19 +0000";
layers = (
{
anchors = (
{
name = imatra;
pos = (489,600);
},
{
name = top;
pos = (280,600);
}
);
layerId = m01;
shapes = (
{
pos = (-50,0);
ref = chaMelPaadi;
},
{
pos = (50,0);
ref = chaKeezhPaadi;
},
{
closed = 0;
nodes = (
(292,491,l)
);
},
{
closed = 0;
nodes = (
(250,350,l),
(270,350,ls),
(367,350,o),
(409,280,o),
(409,145,cs),
(409,-148,ls),
(409,-236,o),
(344,-301,o),
(256,-301,cs),
(165,-301,ls),
(106,-301,o),
(63,-258,o),
(63,-199,cs),
(63,-162,ls),
(63,-103,o),
(106,-60,o),
(165,-60,cs),
(509,-60,l),
(509,450,l)
);
}
);
width = 559;
}
);
metricLeft = "ca-tamil";
metricRight = "ca-tamil";
},
{
glyphname = "na_uMatra-tamil";
lastChange = "2023-04-05 09:27:19 +0000";
layers = (
{
anchors = (
{
name = imatra;
pos = (490,600);
},
{
name = top;
pos = (280,600);
}
);
layerId = m01;
shapes = (
{
closed = 0;
nodes = (
(230,150,l),
(230,600,l),
(50,600,l),
(50,80,l)
);
},
{
closed = 0;
nodes = (
(230,600,l),
(360,600,l)
);
},
{
closed = 0;
nodes = (
(510,450,l),
(510,-60,l),
(152,-60,ls),
(93,-60,o),
(50,-103,o),
(50,-162,cs),
(50,-199,ls),
(50,-258,o),
(93,-301,o),
(152,-301,cs),
(257,-301,ls),
(345,-301,o),
(410,-236,o),
(410,-148,cs),
(410,155,ls),
(410,292,o),
(410,345,o),
(311,345,cs),
(251,345,o),
(230,305,o),
(230,260,c)
);
}
);
width = 560;
}
);
metricLeft = "ca-tamil";
metricRight = "ca-tamil";
},
{
glyphname = "nnna_uMatra-tamil";
lastChange = "2023-04-05 09:27:19 +0000";
layers = (
{
anchors = (
{
name = imatra;
pos = (777,600);
},
{
name = top;
pos = (424,600);
}
);
layerId = m01;
shapes = (
{
pos = (95,0);
ref = chinnaVattam;
},
{
closed = 0;
nodes = (
(172,0,l),
(102,0,o),
(50,51,o),
(50,122,cs),
(50,416,ls),
(50,522,o),
(128,600,o),
(234,600,cs),
(391,600,l)
);
},
{
closed = 0;
nodes = (
(391,600,l),
(340,600,o),
(302,562,o),
(302,511,cs),
(302,89,ls),
(302,38,o),
(339,0,o),
(389,0,cs),
(439,0,o),
(477,38,o),
(477,89,cs),
(477,511,ls),
(477,562,o),
(440,600,o),
(391,600,cs),
(515,600,ls),
(586,600,o),
(637,549,o),
(637,478,cs),
(637,-148,ls),
(637,-236,o),
(572,-301,o),
(484,-301,cs),
(196,-301,ls),
(137,-301,o),
(94,-258,o),
(94,-199,cs),
(94,-162,ls),
(94,-103,o),
(137,-60,o),
(196,-60,cs),
(797,-60,l),
(797,450,l)
);
}
);
width = 847;
}
);
metricLeft = "ca-tamil";
metricRight = "ca-tamil";
},
{
glyphname = "pa_uuMatra-tamil";
lastChange = "2023-04-05 09:27:19 +0000";
layers = (
{
anchors = (
{
name = imatra;
pos = (410,600);
},
{
name = top;
pos = (240,600);
}
);
layerId = m01;
shapes = (
{
ref = "pa-tamil";
},
{
closed = 0;
nodes = (
(387,550,l)
);
},
{
pos = (165,-210);
ref = kokkiVattam;
},
{
closed = 0;
nodes = (
(215,-210,l),
(338,-210,ls),
(391,-210,o),
(430,-171,o),
(430,-118,cs),
(430,4,ls),
(430,30,o),
(410,50,o),
(384,50,cs),
(350,50,l)
);
},
{
closed = 0;
nodes = (
(350,0,l),
(350,-50,l)
);
}
);
width = 480;
}
);
metricLeft = "ca-tamil";
metricRight = "ca-tamil";
},
{
glyphname = "ma_uMatra-tamil";
lastChange = "2023-04-05 09:27:19 +0000";
layers = (
{
anchors = (
{
name = imatra;
pos = (480,600);
},
{
name = top;
pos = (275,600);
}
);
layerId = m01;
shapes = (
{
pos = (100,0);
ref = "ma-tamil";
},
{
closed = 0;
nodes = (
(290,402,l)
);
},
{
closed = 0;
nodes = (
(325,0,l),
(325,-88,ls),
(325,-141,o),
(286,-180,o),
(233,-180,cs),
(142,-180,ls),
(89,-180,o),
(50,-141,o),
(50,-88,cs),
(50,450,l)
);
}
);
width = 550;
}
);
metricLeft = "ca-tamil";
metricRight = "ca-tamil";
},
{
glyphname = "ma_uuMatra-tamil";
lastChange = "2023-04-05 09:27:19 +0000";
layers = (
{
anchors = (
{
name = imatra;
pos = (530,600);
},
{
name = top;
pos = (300,600);
}
);
layerId = m01;
shapes = (
{
pos = (150,0);
ref = "ma-tamil";
},
{
closed = 0;
nodes = (
(340,402,l)
);
},
{
closed = 0;
nodes = (
(375,0,l),
(375,-88,ls),
(375,-141,o),
(336,-180,o),
(283,-180,cs),
(142,-180,ls),
(89,-180,o),
(50,-141,o),
(50,-88,cs),
(50,400,l)
);
},
{
pos = (50,350);
ref = kokkiVattam;
}
);
width = 600;
}
);
metricLeft = "ca-tamil";
metricRight = "ca-tamil";
},
{
glyphname = "ya_uuMatra-tamil";
lastChange = "2023-04-05 09:27:19 +0000";
layers = (
{
anchors = (
{
name = imatra;
pos = (470,600);
},
{
name = top;
pos = (270,600);
}
);
layerId = m01;
shapes = (
{
ref = "ya-tamil";
},
{
closed = 0;
nodes = (
(330,421,l)
);
},
{
pos = (225,-210);
ref = kokkiVattam;
},
{
closed = 0;
nodes = (
(275,-210,l),
(398,-210,ls),
(451,-210,o),
(490,-171,o),
(490,-118,cs),
(490,4,ls),
(490,30,o),
(470,50,o),
(444,50,cs),
(410,50,l)
);
},
{
closed = 0;
nodes = (
(410,0,l),
(410,-50,l)
);
}
);
width = 540;
}
);
metricLeft = "ca-tamil";
metricRight = "ca-tamil";
},
{
glyphname = "ra_uMatra-tamil";
lastChange = "2023-04-05 09:27:19 +0000";
layers = (
{
anchors = (
{
name = imatra;
pos = (490,600);
},
{
name = top;
pos = (280,600);
}
);
layerId = m01;
shapes = (
{
closed = 0;
nodes = (
(150,100,l),
(150,600,l),
(330,600,l),
(330,160,l)
);
},
{
closed = 0;
nodes = (
(330,600,l),
(420,600,l)
);
},
{
closed = 0;
nodes = (
(330,232,l),
(330,277,o),
(351,317,o),
(411,317,cs),
(510,317,o),
(510,264,o),
(510,97,cs),
(510,-87,o),
(479,-140,o),
(352,-140,cs),
(203,-140,ls),
(115,-140,o),
(50,-75,o),
(50,13,cs),
(50,627,ls),
(50,715,o),
(115,780,o),
(203,780,cs),
(357,780,ls),
(445,780,o),
(510,715,o),
(510,627,cs),
(510,550,l)
);
}
);
width = 560;
}
);
metricLeft = "ca-tamil";
metricRight = "ca-tamil";
},
{
glyphname = "ra_uuMatra-tamil";
lastChange = "2023-04-05 09:27:19 +0000";
layers = (
{
anchors = (
{
name = imatra;
pos = (490,600);
},
{
name = top;
pos = (280,600);
}
);
layerId = m01;
shapes = (
{
pos = (410,440);
ref = kokkiVattam;
},
{
closed = 0;
nodes = (
(150,100,l),
(150,600,l),
(330,600,l),
(330,160,l)
);
},
{
closed = 0;
nodes = (
(330,600,l),
(420,600,l)
);
},
{
closed = 0;
nodes = (
(330,232,l),
(330,277,o),
(351,317,o),
(411,317,cs),
(510,317,o),
(510,264,o),
(510,97,cs),
(510,-87,o),
(479,-140,o),
(352,-140,cs),
(203,-140,ls),
(115,-140,o),
(50,-75,o),
(50,13,cs),
(50,627,ls),
(50,715,o),
(115,780,o),
(203,780,cs),
(357,780,ls),
(445,780,o),
(510,715,o),
(510,627,cs),
(510,490,l)
);
}
);
width = 560;
}
);
metricLeft = "ca-tamil";
metricRight = "ca-tamil";
},
{
glyphname = "rra_uMatra-tamil";
lastChange = "2023-04-05 09:27:19 +0000";
layers = (
{
anchors = (
{
name = imatra;
pos = (476,600);
},
{
name = top;
pos = (273,600);
}
);
layerId = m01;
shapes = (
{
closed = 0;
nodes = (
(216,120,l),
(216,524,ls),
(216,568,o),
(184,600,o),
(141,600,cs),
(98,600,o),
(66,568,o),
(66,524,cs),
(66,80,l)
);
},
{
closed = 0;
nodes = (
(216,516,l),
(216,561,o),
(237,601,o),
(297,601,cs),
(391,601,o),
(396,506,o),
(396,369,cs),
(396,225,l),
(396,-148,ls),
(396,-236,o),
(331,-301,o),
(243,-301,cs),
(152,-301,ls),
(93,-301,o),
(50,-258,o),
(50,-199,cs),
(50,-162,ls),
(50,-103,o),
(93,-60,o),
(152,-60,cs),
(496,-60,l),
(496,450,l)
);
}
);
width = 546;
}
);
metricLeft = "ca-tamil";
metricRight = "ca-tamil";
},
{
glyphname = "la_iMatra-tamil";
lastChange = "2023-04-05 09:27:19 +0000";
layers = (
{
anchors = (
{
name = imatra;
pos = (527,600);
},
{
name = top;
pos = (299,600);
}
);
layerId = m01;
shapes = (
{
closed = 0;
nodes = (
(547,0,l),
(547,708,ls),
(547,761,o),
(508,800,o),
(455,800,cs),
(439,800,ls),
(386,800,o),
(347,761,o),
(347,708,cs),
(347,592,ls),
(347,539,o),
(386,500,o),
(439,500,cs),
(467,500,l)
);
},
{
pos = (95,0);
ref = chinnaVattam;
},
{
closed = 0;
nodes = (
(391,600,l),
(435,600,o),
(467,567,o),
(467,523,cs),
(467,76,ls),
(467,32,o),
(435,0,o),
(392,0,cs),
(349,0,o),
(317,32,o),
(317,76,cs),
(317,473,ls),
(317,552,o),
(264,600,o),
(196,600,cs),
(172,600,ls),
(101,600,o),
(50,549,o),
(50,478,cs),
(50,122,ls),
(50,51,o),
(102,0,o),
(172,0,c)
);
}
);
width = 597;
}
);
metricLeft = "ca-tamil";
metricRight = "ca-tamil";
},
{
glyphname = "la_iiMatra-tamil";
lastChange = "2023-04-05 09:27:19 +0000";
layers = (
{
anchors = (
{
name = imatra;
pos = (527,600);
},
{
name = top;
pos = (299,600);
}
);
layerId = m01;
shapes = (
{
closed = 0;
nodes = (
(547,708,ls),
(547,761,o),
(508,800,o),
(455,800,cs),
(439,800,ls),
(386,800,o),
(347,761,o),
(347,708,cs),
(347,592,ls),
(347,539,o),
(386,500,o),
(439,500,cs),
(467,500,l)
);
},
{
pos = (95,0);
ref = chinnaVattam;
},
{
closed = 0;
nodes = (
(391,600,l),
(435,600,o),
(467,567,o),
(467,523,cs),
(467,76,ls),
(467,32,o),
(435,0,o),
(392,0,cs),
(349,0,o),
(317,32,o),
(317,76,cs),
(317,473,ls),
(317,552,o),
(264,600,o),
(196,600,cs),
(172,600,ls),
(101,600,o),
(50,549,o),
(50,478,cs),
(50,122,ls),
(50,51,o),
(102,0,o),
(172,0,c)
);
},
{
pos = (447,658);
ref = kokkiVattam;
}
);
width = 597;
}
);
metricLeft = "ca-tamil";
metricRight = "ca-tamil";
},
{
glyphname = "la_uMatra-tamil";
lastChange = "2023-04-05 09:27:19 +0000";
layers = (
{
anchors = (
{
name = imatra;
pos = (548,600);
},
{
name = top;
pos = (309,600);
}
);
layerId = m01;
shapes = (
{
pos = (1,0);
ref = "la-tamil";
},
{
closed = 0;
nodes = (
(402,507,l)
);
},
{
closed = 0;
nodes = (
(393,0,l),
(393,-148,ls),
(393,-236,o),
(328,-301,o),
(240,-301,cs),
(152,-301,ls),
(93,-301,o),
(50,-258,o),
(50,-199,cs),
(50,-162,ls),
(50,-103,o),
(93,-60,o),
(152,-60,cs),
(568,-60,l),
(568,450,l)
);
}
);
width = 618;
}
);
metricLeft = "ca-tamil";
metricRight = "ca-tamil";
},
{
glyphname = "lla_uMatra-tamil";
lastChange = "2023-04-05 09:27:19 +0000";
layers = (
{
anchors = (
{
name = imatra;
pos = (757,600);
},
{
name = top;
pos = (414,600);
}
);
layerId = m01;
shapes = (
{
pos = (100,0);
ref = "lla-tamil";
},
{
closed = 0;
nodes = (
(510,400,l)
);
},
{
closed = 0;
nodes = (
(50,247,l),
(50,13,ls),
(50,-75,o),
(115,-140,o),
(203,-140,cs),
(619,-140,ls),
(746,-140,o),
(777,-47,o),
(777,37,cs),
(777,194,o),
(777,247,o),
(678,247,cs),
(618,247,o),
(597,207,o),
(597,162,c)
);
}
);
width = 827;
}
);
metricLeft = "ca-tamil";
metricRight = "ca-tamil";
},
{
glyphname = "lla_uuMatra-tamil";
lastChange = "2023-04-05 09:27:19 +0000";
layers = (
{
anchors = (
{
name = imatra;
pos = (817,600);
},
{
name = top;
pos = (444,600);
}
);
layerId = m01;
shapes = (
{
pos = (160,0);
ref = "lla-tamil";
},
{
closed = 0;
nodes = (
(570,400,l)
);
},
{
closed = 0;
nodes = (
(50,247,l),
(50,13,ls),
(50,-75,o),
(115,-140,o),
(203,-140,cs),
(679,-140,ls),
(806,-140,o),
(837,-47,o),
(837,37,cs),
(837,194,o),
(837,247,o),
(738,247,cs),
(678,247,o),
(657,207,o),
(657,162,c)
);
},
{
pos = (50,197);
ref = kokkiVattam;
}
);
width = 887;
}
);
metricLeft = "ca-tamil";
metricRight = "ca-tamil";
},
{
glyphname = "llla_uMatra-tamil";
lastChange = "2023-04-05 09:27:19 +0000";
layers = (
{
anchors = (
{
name = imatra;
pos = (480,600);
},
{
name = top;
pos = (275,600);
}
);
layerId = m01;
shapes = (
{
pos = (100,0);
ref = "ma-tamil";
},
{
closed = 0;
nodes = (
(50,450,l),
(50,-148,ls),
(50,-219,o),
(101,-270,o),
(172,-270,cs),
(275,-270,ls),
(325,-270,o),
(362,-232,o),
(362,-181,c)
);
},
{
closed = 0;
nodes = (
(325,-2,l),
(325,-55,o),
(364,-94,o),
(417,-94,cs),
(470,-94,l)
);
},
{
closed = 0;
nodes = (
(362,-183,l),
(362,-132,o),
(399,-94,o),
(449,-94,c)
);
}
);
width = 550;
}
);
metricLeft = "ca-tamil";
metricRight = "ca-tamil";
},
{
glyphname = "llla_uuMatra-tamil";
lastChange = "2023-04-05 09:27:19 +0000";
layers = (
{
anchors = (
{
name = imatra;
pos = (530,600);
},
{
name = top;
pos = (300,600);
}
);
layerId = m01;
shapes = (
{
pos = (150,0);
ref = "ma-tamil";
},
{
closed = 0;
nodes = (
(50,400,l),
(50,-148,ls),
(50,-219,o),
(101,-270,o),
(172,-270,cs),
(325,-270,ls),
(375,-270,o),
(412,-232,o),
(412,-181,c)
);
},
{
closed = 0;
nodes = (
(375,-2,l),
(375,-55,o),
(414,-94,o),
(467,-94,cs),
(520,-94,l)
);
},
{
closed = 0;
nodes = (
(412,-183,l),
(412,-132,o),
(449,-94,o),
(499,-94,c)
);
},
{
pos = (50,350);
ref = kokkiVattam;
}
);
width = 600;
}
);
metricLeft = "ca-tamil";
metricRight = "ca-tamil";
},
{
glyphname = "va_iMatra-tamil.liga";
lastChange = "2023-04-05 10:40:46 +0000";
layers = (
{
layerId = m01;
shapes = (
{
pos = (50,196);
ref = chinnaVattam;
},
{
closed = 0;
nodes = (
(520,0,l),
(520,708,ls),
(520,761,o),
(481,800,o),
(428,800,cs),
(412,800,ls),
(359,800,o),
(320,761,o),
(320,708,cs),
(320,692,ls),
(320,639,o),
(359,600,o),
(412,600,cs),
(420,600,l),
(420,0,l),
(110,0,ls),
(81,0,o),
(59,21,o),
(59,50,cs),
(59,79,o),
(81,100,o),
(110,100,cs),
(198,100,ls),
(269,100,o),
(320,151,o),
(320,222,cs),
(320,478,ls),
(320,549,o),
(269,600,o),
(198,600,cs),
(172,600,ls),
(101,600,o),
(50,549,o),
(50,478,cs),
(50,295,l)
);
}
);
width = 570;
}
);
metricLeft = "ca-tamil";
metricRight = "ca-tamil";
},
{
glyphname = "va_uuMatra-tamil";
lastChange = "2023-04-05 09:27:19 +0000";
layers = (
{
anchors = (
{
name = imatra;
pos = (480,600);
},
{
name = top;
pos = (275,600);
}
);
layerId = m01;
shapes = (
{
ref = "va-tamil";
},
{
closed = 0;
nodes = (
(398,343,l)
);
},
{
pos = (235,-210);
ref = kokkiVattam;
},
{
closed = 0;
nodes = (
(285,-210,l),
(408,-210,ls),
(461,-210,o),
(500,-171,o),
(500,-118,cs),
(500,4,ls),
(500,30,o),
(480,50,o),
(454,50,cs),
(420,50,l)
);
},
{
closed = 0;
nodes = (
(420,0,l),
(420,-50,l)
);
}
);
width = 550;
}
);
metricLeft = "ca-tamil";
metricRight = "ca-tamil";
},
{
glyphname = "sa_iMatra-tamil";
lastChange = "2023-04-05 09:27:19 +0000";
layers = (
{
anchors = (
{
name = imatra;
pos = (667,600);
},
{
name = top;
pos = (369,600);
}
);
layerId = m01;
shapes = (
{
closed = 0;
nodes = (
(539,528,l)
);
},
{
closed = 0;
nodes = (
(687,0,l),
(687,708,ls),
(687,761,o),
(648,800,o),
(595,800,cs),
(579,800,ls),
(526,800,o),
(487,761,o),
(487,708,cs),
(487,592,ls),
(487,539,o),
(526,500,o),
(579,500,cs),
(607,500,l)
);
},
{
pos = (95,0);
ref = chinnaVattam;
},
{
closed = 0;
nodes = (
(317,76,l),
(317,473,ls),
(317,552,o),
(264,600,o),
(196,600,cs),
(172,600,ls),
(101,600,o),
(50,549,o),
(50,478,cs),
(50,122,ls),
(50,51,o),
(102,0,o),
(172,0,c)
);
},
{
closed = 0;
nodes = (
(533,600,ls),
(577,600,o),
(609,567,o),
(609,523,cs),
(609,76,ls),
(609,32,o),
(577,0,o),
(534,0,cs),
(491,0,o),
(459,32,o),
(459,76,cs),
(459,524,ls),
(459,568,o),
(427,600,o),
(384,600,cs),
(341,600,o),
(309,568,o),
(309,524,c)
);
}
);
width = 737;
}
);
metricRight = "ca-tamil";
},
{
glyphname = "sa_iiMatra-tamil";
lastChange = "2023-04-05 09:27:19 +0000";
layers = (
{
anchors = (
{
name = imatra;
pos = (669,600);
},
{
name = top;
pos = (370,600);
}
);
layerId = m01;
shapes = (
{
pos = (95,0);
ref = chinnaVattam;
},
{
closed = 0;
nodes = (
(317,76,l),
(317,473,ls),
(317,552,o),
(264,600,o),
(196,600,cs),
(172,600,ls),
(101,600,o),
(50,549,o),
(50,478,cs),
(50,122,ls),
(50,51,o),
(102,0,o),
(172,0,c)
);
},
{
closed = 0;
nodes = (
(533,600,ls),
(577,600,o),
(609,567,o),
(609,523,cs),
(609,76,ls),
(609,32,o),
(577,0,o),
(534,0,cs),
(491,0,o),
(459,32,o),
(459,76,cs),
(459,524,ls),
(459,568,o),
(427,600,o),
(384,600,cs),
(341,600,o),
(309,568,o),
(309,524,c)
);
},
{
closed = 0;
nodes = (
(689,708,ls),
(689,761,o),
(650,800,o),
(597,800,cs),
(581,800,ls),
(528,800,o),
(489,761,o),
(489,708,cs),
(489,592,ls),
(489,539,o),
(528,500,o),
(581,500,cs),
(609,500,l)
);
},
{
pos = (589,658);
ref = kokkiVattam;
}
);
width = 739;
}
);
metricLeft = "ca-tamil";
metricRight = "ca-tamil";
},
{
glyphname = "k_ssa-tamil";
lastChange = "2023-04-05 09:27:19 +0000";
layers = (
{
anchors = (
{
name = imatra;
pos = (880,600);
},
{
name = top;
pos = (475,600);
}
);
layerId = m01;
shapes = (
{
pos = (-50,0);
ref = chaMelPaadi;
},
{
pos = (50,0);
ref = chaKeezhPaadi;
},
{
closed = 0;
nodes = (
(250,350,l),
(390,350,l),
(478,350,ls),
(549,350,o),
(600,298,o),
(600,227,cs),
(600,222,ls),
(600,151,o),
(549,100,o),
(478,100,cs),
(380,100,ls),
(351,100,o),
(329,79,o),
(329,50,cs),
(329,21,o),
(351,0,o),
(380,0,cs),
(900,0,l)
);
},
{
closed = 1;
nodes = (
(433,160,o),
(464,195,o),
(464,242,cs),
(464,268,ls),
(464,315,o),
(432,350,o),
(389,350,cs),
(346,350,o),
(314,315,o),
(314,268,cs),
(314,242,ls),
(314,195,o),
(346,160,o),
(389,160,cs)
);
},
{
closed = 0;
nodes = (
(810,0,l),
(810,198,ls),
(810,246,o),
(776,280,o),
(730,280,cs),
(684,280,o),
(650,246,o),
(650,198,cs),
(650,82,ls),
(650,34,o),
(684,0,o),
(724,0,cs),
(810,0,l),
(810,-297,l)
);
}
);
width = 950;
}
);
metricLeft = "ca-tamil";
metricRight = "ca-tamil";
},
{
glyphname = "sh_ra_iiMatra-tamil";
lastChange = "2023-04-05 09:27:19 +0000";
layers = (
{
anchors = (
{
name = imatra;
pos = (829,600);
},
{
name = top;
pos = (450,600);
}
);
layerId = m01;
shapes = (
{
closed = 0;
nodes = (
(160,600,l),
(160,0,l),
(360,0,l),
(360,549,ls),
(360,578,o),
(382,600,o),
(411,600,cs),
(419,600,ls),
(448,600,o),
(470,578,o),
(470,549,cs),
(470,0,l)
);
},
{
closed = 0;
nodes = (
(650,600,l),
(740,600,l)
);
},
{
closed = 0;
nodes = (
(650,232,l),
(650,277,o),
(671,317,o),
(731,317,cs),
(830,317,o),
(830,264,o),
(830,97,cs),
(830,-87,o),
(779,-140,o),
(652,-140,cs),
(203,-140,ls),
(115,-140,o),
(50,-75,o),
(50,13,cs),
(50,450,l)
);
},
{
closed = 0;
nodes = (
(650,160,l),
(650,600,l),
(572,600,ls),
(513,600,o),
(470,557,o),
(470,498,cs),
(470,487,l)
);
},
{
closed = 0;
nodes = (
(849,708,ls),
(849,761,o),
(810,800,o),
(757,800,cs),
(741,800,ls),
(688,800,o),
(649,761,o),
(649,708,cs),
(649,592,ls)
);
},
{
pos = (749,658);
ref = kokkiVattam;
}
);
width = 899;
}
);
metricLeft = "ca-tamil";
metricRight = "ca-tamil";
},
{
glyphname = "a-tamil";
lastChange = "2023-03-18 09:18:36 +0000";
layers = (
{
layerId = m01;
shapes = (
{
closed = 0;
nodes = (
(440,450,l),
(440,0,l)
);
},
{
pos = (80,294);
ref = chinnaVattam;
},
{
closed = 1;
nodes = (
(50,250,l),
(50,122,ls),
(50,51,o),
(101,0,o),
(172,0,cs),
(238,0,ls),
(309,0,o),
(360,51,o),
(360,122,cs),
(360,250,l)
);
},
{
closed = 0;
nodes = (
(360,244,l),
(360,478,ls),
(360,549,o),
(309,600,o),
(238,600,cs),
(202,600,ls),
(131,600,o),
(80,549,o),
(80,478,cs),
(80,394,l)
);
},
{
closed = 0;
nodes = (
(440,250,l),
(360,250,l)
);
}
);
width = 490;
}
);
metricLeft = "ca-tamil";
metricRight = "ca-tamil";
unicode = 2949;
},
{
glyphname = "aa-tamil";
lastChange = "2022-12-25 00:26:55 +0000";
layers = (
{
layerId = m01;
shapes = (
{
ref = "a-tamil";
},
{
pos = (255,-210);
ref = kokkiVattam;
},
{
closed = 0;
nodes = (
(305,-210,l),
(428,-210,ls),
(481,-210,o),
(520,-171,o),
(520,-118,cs),
(520,4,ls),
(520,30,o),
(500,50,o),
(474,50,cs),
(440,50,l)
);
}
);
width = 570;
}
);
metricLeft = "ca-tamil";
metricRight = "ca-tamil";
unicode = 2950;
},
{
glyphname = "i-tamil";
lastChange = "2023-03-19 05:30:53 +0000";
layers = (
{
layerId = m01;
shapes = (
{
closed = 1;
nodes = (
(50,250,l),
(50,122,ls),
(50,51,o),
(101,0,o),
(172,0,cs),
(338,0,ls),
(409,0,o),
(460,51,o),
(460,122,cs),
(460,250,l)
);
},
{
closed = 0;
nodes = (
(460,244,l),
(460,478,ls),
(460,549,o),
(409,600,o),
(338,600,cs),
(322,600,ls),
(251,600,o),
(200,549,o),
(200,478,cs),
(200,394,l)
);
},
{
pos = (200,294);
ref = chinnaVattam;
},
{
closed = 0;
nodes = (
(520,330,l),
(520,484,ls),
(520,591,o),
(441,670,o),
(334,670,cs),
(326,670,ls),
(219,670,o),
(140,591,o),
(140,484,cs),
(140,122,ls),
(140,51,o),
(191,0,o),
(262,0,cs),
(428,0,ls),
(499,0,o),
(550,51,o),
(550,122,cs),
(550,250,l),
(460,250,l)
);
}
);
width = 600;
}
);
metricLeft = "ca-tamil";
metricRight = "ca-tamil";
unicode = 2951;
},
{
glyphname = "ii-tamil";
lastChange = "2023-03-23 04:41:00 +0000";
layers = (
{
layerId = m01;
shapes = (
{
closed = 0;
nodes = (
(331,556,l)
);
},
{
closed = 0;
nodes = (
(440,600,l),
(320,600,l)
);
},
{
closed = 0;
nodes = (
(320,0,l),
(320,600,l),
(50,600,l),
(50,0,l)
);
},
{
pos = (380,250);
ref = kokkiVattam;
},
{
pos = (135,250);
ref = kokkiVattam;
}
);
width = 510;
}
);
metricLeft = "ca-tamil";
unicode = 2952;
},
{
glyphname = "u-tamil";
lastChange = "2022-12-01 16:37:57 +0000";
layers = (
{
layerId = m01;
shapes = (
{
pos = (50,196);
ref = chinnaVattam;
},
{
closed = 0;
nodes = (
(470,0,l),
(110,0,ls),
(81,0,o),
(59,21,o),
(59,50,cs),
(59,79,o),
(81,100,o),
(110,100,cs),
(198,100,ls),
(269,100,o),
(320,151,o),
(320,222,cs),
(320,478,ls),
(320,549,o),
(269,600,o),
(198,600,cs),
(172,600,ls),
(101,600,o),
(50,549,o),
(50,478,cs),
(50,295,l)
);
}
);
width = 520;
}
);
metricLeft = "ca-tamil";
metricRight = "ca-tamil";
unicode = 2953;
},
{
glyphname = "uu-tamil";
lastChange = "2022-12-26 00:06:54 +0000";
layers = (
{
layerId = m01;
shapes = (
{
pos = (50,196);
ref = chinnaVattam;
},
{
closed = 0;
nodes = (
(770,0,l),
(110,0,ls),
(81,0,o),
(59,21,o),
(59,50,cs),
(59,79,o),
(81,100,o),
(110,100,cs),
(198,100,ls),
(269,100,o),
(320,151,o),
(320,222,cs),
(320,478,ls),
(320,549,o),
(269,600,o),
(198,600,cs),
(172,600,ls),
(101,600,o),
(50,549,o),
(50,478,cs),
(50,295,l)
);
},
{
pos = (414,50);
ref = chinnaVattam;
scale = (0.7507,0.7507);
},
{
closed = 0;
nodes = (
(580,200,l),
(580,405,ls),
(580,464,o),
(541,500,o),
(490,500,cs),
(472,500,ls),
(418,500,o),
(380,462,o),
(380,409,cs),
(380,142,ls),
(380,88,o),
(419,50,o),
(472,50,c)
);
},
{
closed = 0;
nodes = (
(715,50,l),
(715,500,l),
(580,500,l),
(580,200,l)
);
},
{
closed = 0;
nodes = (
(765,500,l),
(715,500,l)
);
}
);
width = 820;
}
);
metricLeft = "ca-tamil";
metricRight = "ca-tamil";
unicode = 2954;
},
{
glyphname = "e-tamil";
lastChange = "2022-12-24 14:37:17 +0000";
layers = (
{
layerId = m01;
shapes = (
{
closed = 0;
nodes = (
(370,0,l),
(370,600,l),
(254,600,ls),
(136,600,o),
(50,514,o),
(50,396,cs),
(50,175,l)
);
},
{
pos = (50,50);
ref = naduVattam;
},
{
closed = 0;
nodes = (
(370,600,l),
(490,600,l)
);
}
);
width = 515;
}
);
metricLeft = "ca-tamil";
unicode = 2958;
},
{
glyphname = "ee-tamil";
lastChange = "2022-12-24 14:37:19 +0000";
layers = (
{
layerId = m01;
shapes = (
{
closed = 0;
nodes = (
(200,-296,l),
(370,0,l),
(370,600,l),
(254,600,ls),
(136,600,o),
(50,514,o),
(50,396,cs),
(50,175,l)
);
},
{
pos = (50,50);
ref = naduVattam;
},
{
closed = 0;
nodes = (
(370,600,l),
(490,600,l)
);
}
);
width = 515;
}
);
metricLeft = "ca-tamil";
unicode = 2959;
},
{
glyphname = "ai-tamil";
lastChange = "2023-03-23 04:29:19 +0000";
layers = (
{
layerId = m01;
shapes = (
{
pos = (95,295);
ref = chinnaVattam;
},
{
closed = 0;
nodes = (
(317,371,l),
(317,473,ls),
(317,552,o),
(264,600,o),
(196,600,cs),
(172,600,ls),
(101,600,o),
(50,549,o),
(50,478,cs),
(50,417,ls),
(50,346,o),
(102,295,o),
(172,295,c)
);
},
{
closed = 0;
nodes = (
(482,231,l),
(508,231,ls),
(552,231,o),
(584,198,o),
(584,154,c),
(584,127,ls),
(584,48,o),
(531,0,o),
(463,0,cs),
(439,0,ls),
(368,0,o),
(317,51,o),
(317,122,c)
);
},
{
closed = 0;
nodes = (
(317,172,l),
(317,121,ls),
(317,50,o),
(266,-1,o),
(195,-1,cs),
(171,-1,ls),
(103,-1,o),
(50,47,o),
(50,126,cs),
(50,185,o),
(86,203,o),
(140,218,cs),
(477,313,ls),
(540,331,o),
(584,383,o),
(584,450,cs),
(584,473,ls),
(584,552,o),
(531,600,o),
(463,600,cs),
(439,600,ls),
(368,600,o),
(317,549,o),
(317,478,cs),
(317,417,l)
);
}
);
width = 634;
}
);
metricLeft = "ca-tamil";
metricRight = "ca-tamil";
unicode = 2960;
},
{
glyphname = "o-tamil";
lastChange = "2023-03-18 08:38:32 +0000";
layers = (
{
layerId = m01;
shapes = (
{
pos = (50,174);
ref = chinnaVattam;
},
{
closed = 0;
nodes = (
(139,-106,l),
(139,-167,o),
(184,-213,o),
(244,-213,cs),
(304,-213,o),
(349,-167,o),
(349,-106,cs),
(349,-45,o),
(394,0,o),
(453,0,cs),
(412,0,ls),
(359,0,o),
(320,40,o),
(320,92,cs),
(320,227,l)
);
},
{
closed = 0;
nodes = (
(320,137,l),
(440,137,l),
(440,416,ls),
(440,522,o),
(362,600,o),
(256,600,cs),
(234,600,ls),
(128,600,o),
(50,522,o),
(50,416,cs),
(50,274,l)
);
}
);
width = 503;
}
);
metricLeft = "ca-tamil";
metricRight = "ca-tamil";
unicode = 2962;
},
{
glyphname = "oo-tamil";
lastChange = "2023-03-18 08:38:27 +0000";
layers = (
{
layerId = m01;
shapes = (
{
pos = (50,174);
ref = chinnaVattam;
},
{
closed = 0;
nodes = (
(139,-106,l),
(139,-167,o),
(184,-213,o),
(244,-213,cs),
(304,-213,o),
(349,-167,o),
(349,-106,cs),
(349,-45,o),
(394,0,o),
(453,0,cs),
(412,0,ls),
(359,0,o),
(320,40,o),
(320,92,cs),
(320,227,l)
);
},
{
closed = 0;
nodes = (
(320,137,l),
(440,137,l),
(440,416,ls),
(440,522,o),
(362,600,o),
(256,600,cs),
(234,600,ls),
(128,600,o),
(50,522,o),
(50,416,cs),
(50,274,l)
);
},
{
pos = (139,-156);
ref = kokkiVattam;
}
);
width = 503;
}
);
metricLeft = "ca-tamil";
metricRight = "ca-tamil";
unicode = 2963;
},
{
glyphname = "au-tamil";
lastChange = "2023-03-18 08:38:21 +0000";
layers = (
{
layerId = m01;
shapes = (
{
pos = (50,174);
ref = chinnaVattam;
},
{
closed = 0;
nodes = (
(139,-106,l),
(139,-167,o),
(184,-213,o),
(244,-213,cs),
(304,-213,o),
(349,-167,o),
(349,-106,cs),
(349,-45,o),
(394,0,o),
(453,0,cs),
(412,0,ls),
(359,0,o),
(320,40,o),
(320,92,cs),
(320,227,l)
);
},
{
closed = 0;
nodes = (
(320,137,l),
(440,137,l),
(440,416,ls),
(440,522,o),
(362,600,o),
(256,600,cs),
(234,600,ls),
(128,600,o),
(50,522,o),
(50,416,cs),
(50,274,l)
);
},
{
pos = (564,0);
ref = chinnaVattam;
},
{
closed = 0;
nodes = (
(786,200,l),
(786,473,ls),
(786,552,o),
(733,600,o),
(665,600,cs),
(641,600,ls),
(570,600,o),
(519,549,o),
(519,478,cs),
(519,122,ls),
(519,51,o),
(571,0,o),
(641,0,c)
);
},
{
closed = 0;
nodes = (
(966,0,l),
(966,600,l),
(786,600,l),
(786,200,l)
);
},
{
closed = 0;
nodes = (
(1046,600,l),
(966,600,l)
);
}
);
width = 1096;
}
);
metricLeft = "ca-tamil";
metricRight = "ca-tamil";
unicode = 2964;
},
{
glyphname = "ka-tamil";
lastChange = "2023-04-05 10:12:43 +0000";
layers = (
{
anchors = (
{
name = imatra;
pos = (231,600);
},
{
name = top;
pos = (250,600);
}
);
layerId = m01;
shapes = (
{
pos = (-50,0);
ref = chaMelPaadi;
},
{
pos = (50,0);
ref = chaKeezhPaadi;
},
{
closed = 0;
nodes = (
(398,445,l)
);
},
{
pos = (231,0);
ref = kaKeezhPaadi;
}
);
width = 460;
}
);
metricLeft = "ca-tamil";
metricRight = "ca-tamil";
unicode = 2965;
},
{
glyphname = "nga-tamil";
lastChange = "2023-04-05 09:33:44 +0000";
layers = (
{
anchors = (
{
name = imatra;
pos = (230,600);
},
{
name = top;
pos = (280,600);
}
);
layerId = m01;
shapes = (
{
closed = 0;
nodes = (
(230,150,l),
(230,600,l),
(50,600,l),
(50,0,l)
);
},
{
closed = 0;
nodes = (
(230,600,l),
(360,600,l)
);
},
{
closed = 0;
nodes = (
(230,260,l),
(230,305,o),
(251,345,o),
(311,345,cs),
(410,345,o),
(410,292,o),
(410,155,cs),
(410,51,o),
(379,-2,o),
(252,-2,c),
(510,0,l),
(510,450,l)
);
}
);
width = 560;
}
);
metricLeft = "ca-tamil";
metricRight = "ca-tamil";
unicode = 2969;
},
{
glyphname = "ca-tamil";
lastChange = "2023-04-05 09:30:33 +0000";
layers = (
{
anchors = (
{
name = imatra;
pos = (205,600);
},
{
name = top;
pos = (205,600);
}
);
layerId = m01;
shapes = (
{
pos = (-50,0);
ref = chaMelPaadi;
},
{
pos = (50,0);
ref = chaKeezhPaadi;
},
{
closed = 0;
nodes = (
(250,350,l),
(360,350,l)
);
}
);
width = 410;
}
);
unicode = 2970;
},
{
glyphname = "ja-tamil";
lastChange = "2023-04-05 09:37:59 +0000";
layers = (
{
anchors = (
{
name = imatra;
pos = (463,600);
},
{
name = top;
pos = (317,600);
}
);
layerId = m01;
shapes = (
{
pos = (95,295);
ref = chinnaVattam;
},
{
closed = 0;
nodes = (
(317,371,l),
(317,473,ls),
(317,552,o),
(264,600,o),
(196,600,cs),
(172,600,ls),
(101,600,o),
(50,549,o),
(50,478,cs),
(50,417,ls),
(50,346,o),
(102,295,o),
(172,295,c)
);
},
{
closed = 0;
nodes = (
(384,100,l),
(384,98,ls),
(384,41,o),
(425,0,o),
(488,0,cs),
(543,0,o),
(584,41,o),
(584,113,cs),
(584,191,o),
(539,232,o),
(463,232,cs),
(373,232,o),
(332,175,o),
(317,115,cs),
(301,52,o),
(266,-1,o),
(195,-1,cs),
(171,-1,ls),
(103,-1,o),
(50,47,o),
(50,126,cs),
(50,185,o),
(86,203,o),
(140,218,cs),
(477,313,ls),
(540,331,o),
(584,383,o),
(584,450,cs),
(584,473,ls),
(584,552,o),
(531,600,o),
(463,600,cs),
(439,600,ls),
(368,600,o),
(317,549,o),
(317,478,cs),
(317,417,l)
);
}
);
width = 600;
}
);
unicode = 2972;
},
{
glyphname = "nya-tamil";
lastChange = "2023-04-05 09:37:41 +0000";
layers = (
{
anchors = (
{
name = imatra;
pos = (470,600);
},
{
name = top;
pos = (350,600);
}
);
layerId = m01;
shapes = (
{
pos = (100,0);
ref = "e-tamil";
},
{
closed = 0;
nodes = (
(50,247,l),
(50,13,ls),
(50,-75,o),
(115,-140,o),
(203,-140,cs),
(492,-140,ls),
(619,-140,o),
(650,-47,o),
(650,37,cs),
(650,194,o),
(650,247,o),
(551,247,cs),
(491,247,o),
(470,207,o),
(470,162,c)
);
}
);
width = 700;
}
);
metricLeft = "ca-tamil";
metricRight = "ca-tamil";
unicode = 2974;
},
{
glyphname = "tta-tamil";
lastChange = "2023-04-05 09:37:33 +0000";
layers = (
{
anchors = (
{
name = imatra;
pos = (200,0);
},
{
name = top;
pos = (200,600);
}
);
layerId = m01;
shapes = (
{
closed = 0;
nodes = (
(50,600,l),
(50,0,l),
(350,0,l)
);
}
);
width = 400;
}
);
metricLeft = "ca-tamil";
metricRight = "ca-tamil";
unicode = 2975;
},
{
glyphname = "nna-tamil";
lastChange = "2023-04-05 09:37:12 +0000";
layers = (
{
anchors = (
{
name = imatra;
pos = (800,600);
},
{
name = top;
pos = (448,600);
}
);
layerId = m01;
shapes = (
{
pos = (95,0);
ref = chinnaVattam;
},
{
closed = 0;
nodes = (
(172,0,l),
(102,0,o),
(50,51,o),
(50,122,cs),
(50,416,ls),
(50,522,o),
(128,600,o),
(234,600,cs),
(846,600,l)
);
},
{
closed = 1;
nodes = (
(477,511,ls),
(477,562,o),
(440,600,o),
(391,600,cs),
(340,600,o),
(302,562,o),
(302,511,cs),
(302,89,ls),
(302,38,o),
(339,0,o),
(389,0,cs),
(439,0,o),
(477,38,o),
(477,89,cs)
);
},
{
closed = 0;
nodes = (
(800,600,l),
(800,0,l)
);
},
{
closed = 1;
nodes = (
(717,511,ls),
(717,562,o),
(680,600,o),
(631,600,cs),
(580,600,o),
(542,562,o),
(542,511,cs),
(542,89,ls),
(542,38,o),
(579,0,o),
(629,0,cs),
(679,0,o),
(717,38,o),
(717,89,cs)
);
}
);
width = 896;
}
);
metricLeft = "ca-tamil";
metricRight = "ca-tamil";
unicode = 2979;
},
{
glyphname = "ta-tamil";
lastChange = "2023-04-05 09:37:07 +0000";
layers = (
{
anchors = (
{
name = imatra;
pos = (251,600);
},
{
name = top;
pos = (230,600);
}
);
layerId = m01;
shapes = (
{
pos = (-49,0);
ref = chaMelPaadi;
},
{
pos = (51,0);
ref = chaKeezhPaadi;
},
{
pos = (20,0);
ref = taKeezh;
},
{
closed = 0;
nodes = (
(390,489,l)
);
}
);
width = 460;
}
);
metricLeft = "ca-tamil";
metricRight = "ca-tamil";
unicode = 2980;
},
{
glyphname = "na-tamil";
lastChange = "2023-04-05 09:33:53 +0000";
layers = (
{
anchors = (
{
name = bottom;
pos = (230,-300);
},
{
name = bottomright;
pos = (460,-300);
},
{
name = imatra;
pos = (230,600);
},
{
name = top;
pos = (230,600);
}
);
layerId = m01;
shapes = (
{
closed = 0;
nodes = (
(230,150,l),
(230,600,l),
(50,600,l),
(50,80,l)
);
},
{
closed = 0;
nodes = (
(230,600,l),
(360,600,l)
);
},
{
pos = (9,0);
ref = nnaPakkam;
}
);
width = 460;
}
);
metricLeft = "ca-tamil";
metricRight = "ca-tamil";
unicode = 2984;
},
{
glyphname = "nnna-tamil";
lastChange = "2023-04-05 09:41:20 +0000";
layers = (
{
anchors = (
{
name = imatra;
pos = (580,600);
},
{
name = top;
pos = (391,600);
}
);
layerId = m01;
shapes = (
{
pos = (95,0);
ref = chinnaVattam;
},
{
closed = 0;
nodes = (
(172,0,l),
(102,0,o),
(50,51,o),
(50,122,cs),
(50,416,ls),
(50,522,o),
(128,600,o),
(234,600,cs),
(626,600,l)
);
},
{
closed = 1;
nodes = (
(477,511,ls),
(477,562,o),
(440,600,o),
(391,600,cs),
(340,600,o),
(302,562,o),
(302,511,cs),
(302,89,ls),
(302,38,o),
(339,0,o),
(389,0,cs),
(439,0,o),
(477,38,o),
(477,89,cs)
);
},
{
closed = 0;
nodes = (
(580,600,l),
(580,0,l)
);
}
);
width = 676;
}
);
metricLeft = "ca-tamil";
metricRight = "ca-tamil";
unicode = 2985;
},
{
glyphname = "pa-tamil";
lastChange = "2023-04-05 09:36:49 +0000";
layers = (
{
anchors = (
{
name = imatra;
pos = (350,600);
},
{
name = top;
pos = (200,600);
}
);
layerId = m01;
shapes = (
{
closed = 0;
nodes = (
(50,600,l),
(50,0,l),
(350,0,l),
(350,600,l)
);
}
);
width = 400;
}
);
metricLeft = "ca-tamil";
metricRight = "ca-tamil";
unicode = 2986;
},
{
glyphname = "ma-tamil";
lastChange = "2023-04-05 09:36:43 +0000";
layers = (
{
anchors = (
{
name = imatra;
pos = (313,600);
},
{
name = top;
pos = (225,600);
}
);
layerId = m01;
shapes = (
{
closed = 1;
nodes = (
(225,0,l),
(311,0,ls),
(362,0,o),
(400,38,o),
(400,89,cs),
(400,511,ls),
(400,562,o),
(363,600,o),
(313,600,cs),
(263,600,o),
(225,562,o),
(225,511,cs)
);
},
{
closed = 0;
nodes = (
(50,600,l),
(50,0,l),
(225,0,l)
);
}
);
width = 450;
}
);
metricLeft = "ca-tamil";
metricRight = "ca-tamil";
unicode = 2990;
},
{
glyphname = "ya-tamil";
lastChange = "2023-04-05 09:36:35 +0000";
layers = (
{
anchors = (
{
name = imatra;
pos = (410,600);
},
{
name = top;
pos = (230,600);
}
);
layerId = m01;
shapes = (
{
closed = 0;
nodes = (
(50,600,l),
(50,92,ls),
(50,39,o),
(88,0,o),
(140,0,cs),
(192,0,o),
(230,39,o),
(230,92,cs),
(230,600,l),
(230,0,l),
(410,0,l),
(410,600,l)
);
}
);
width = 460;
}
);
metricLeft = "ca-tamil";
metricRight = "ca-tamil";
unicode = 2991;
},
{
glyphname = "ra-tamil";
lastChange = "2023-04-05 09:36:24 +0000";
layers = (
{
anchors = (
{
name = imatra;
pos = (250,600);
},
{
name = top;
pos = (195,600);
}
);
layerId = m01;
shapes = (
{
closed = 0;
nodes = (
(50,100,l),
(50,600,l),
(250,600,l),
(250,0,l),
(80,-296,l)
);
},
{
closed = 0;
nodes = (
(250,600,l),
(340,600,l)
);
}
);
width = 390;
}
);
metricLeft = "ca-tamil";
metricRight = "ca-tamil";
unicode = 2992;
},
{
glyphname = "rra-tamil";
lastChange = "2023-04-05 09:36:17 +0000";
layers = (
{
anchors = (
{
name = imatra;
pos = (311,601);
},
{
name = top;
pos = (230,600);
}
);
layerId = m01;
shapes = (
{
closed = 0;
nodes = (
(230,120,l),
(230,524,ls),
(230,568,o),
(198,600,o),
(155,600,cs),
(112,600,o),
(80,568,o),
(80,524,cs),
(80,80,l)
);
},
{
closed = 0;
nodes = (
(50,-301,l),
(50,-214,ls),
(50,-117,o),
(115,-52,o),
(203,-52,cs),
(252,-52,ls),
(379,-52,o),
(410,1,o),
(410,225,cs),
(410,369,ls),
(410,506,o),
(405,601,o),
(311,601,cs),
(251,601,o),
(230,561,o),
(230,516,c)
);
}
);
width = 460;
}
);
metricLeft = "ca-tamil";
metricRight = "ca-tamil";
unicode = 2993;
},
{
glyphname = "la-tamil";
lastChange = "2023-04-05 09:35:43 +0000";
layers = (
{
anchors = (
{
name = imatra;
pos = (365,600);
},
{
name = top;
pos = (288,600);
}
);
layerId = m01;
shapes = (
{
pos = (95,0);
ref = chinnaVattam;
},
{
closed = 0;
nodes = (
(365,600,l),
(391,600,ls),
(435,600,o),
(467,567,o),
(467,523,cs),
(467,76,ls),
(467,32,o),
(435,0,o),
(392,0,cs),
(349,0,o),
(317,32,o),
(317,76,cs),
(317,473,ls),
(317,552,o),
(264,600,o),
(196,600,cs),
(172,600,ls),
(101,600,o),
(50,549,o),
(50,478,cs),
(50,122,ls),
(50,51,o),
(102,0,o),
(172,0,c)
);
}
);
width = 517;
}
);
metricLeft = "ca-tamil";
metricRight = "ca-tamil";
unicode = 2994;
},
{
glyphname = "lla-tamil";
lastChange = "2023-04-05 09:35:24 +0000";
layers = (
{
anchors = (
{
name = imatra;
pos = (497,600);
},
{
name = top;
pos = (314,600);
}
);
layerId = m01;
shapes = (
{
pos = (95,0);
ref = chinnaVattam;
},
{
closed = 0;
nodes = (
(317,200,l),
(317,473,ls),
(317,552,o),
(264,600,o),
(196,600,cs),
(172,600,ls),
(101,600,o),
(50,549,o),
(50,478,cs),
(50,122,ls),
(50,51,o),
(102,0,o),
(172,0,c)
);
},
{
closed = 0;
nodes = (
(497,0,l),
(497,600,l),
(317,600,l),
(317,200,l)
);
},
{
closed = 0;
nodes = (
(577,600,l),
(497,600,l)
);
}
);
width = 627;
}
);
metricLeft = "ca-tamil";
metricRight = "ca-tamil";
unicode = 2995;
},
{
glyphname = "llla-tamil";
lastChange = "2023-04-05 09:35:00 +0000";
layers = (
{
anchors = (
{
name = imatra;
pos = (313,600);
},
{
name = top;
pos = (225,600);
}
);
layerId = m01;
shapes = (
{
closed = 1;
nodes = (
(225,0,l),
(311,0,ls),
(362,0,o),
(400,38,o),
(400,89,cs),
(400,511,ls),
(400,562,o),
(363,600,o),
(313,600,cs),
(263,600,o),
(225,562,o),
(225,511,cs)
);
},
{
closed = 0;
nodes = (
(50,600,l),
(50,0,l),
(225,0,l),
(225,-31,ls),
(225,-84,o),
(264,-123,o),
(317,-123,cs),
(370,-123,l)
);
},
{
closed = 0;
nodes = (
(87,-210,ls),
(87,-261,o),
(125,-299,o),
(175,-299,cs),
(225,-299,o),
(262,-261,o),
(262,-210,cs)
);
},
{
closed = 0;
nodes = (
(262,-212,ls),
(262,-161,o),
(299,-123,o),
(349,-123,cs)
);
}
);
width = 450;
}
);
metricLeft = "ca-tamil";
metricRight = "ca-tamil";
unicode = 2996;
},
{
glyphname = "va-tamil";
lastChange = "2023-04-05 10:18:10 +0000";
layers = (
{
anchors = (
{
name = imatra;
pos = (420,500);
},
{
name = top;
pos = (320,600);
}
);
layerId = m01;
shapes = (
{
pos = (50,196);
ref = chinnaVattam;
},
{
closed = 0;
nodes = (
(420,500,l),
(420,0,l),
(110,0,ls),
(81,0,o),
(59,21,o),
(59,50,cs),
(59,79,o),
(81,100,o),
(110,100,cs),
(198,100,ls),
(269,100,o),
(320,151,o),
(320,222,cs),
(320,478,ls),
(320,549,o),
(269,600,o),
(198,600,cs),
(172,600,ls),
(101,600,o),
(50,549,o),
(50,478,cs),
(50,295,l)
);
}
);
width = 470;
}
);
metricLeft = "ca-tamil";
metricRight = "ca-tamil";
unicode = 2997;
},
{
glyphname = "sha-tamil";
lastChange = "2023-04-05 09:38:35 +0000";
layers = (
{
anchors = (
{
name = imatra;
pos = (510,600);
},
{
name = top;
pos = (280,600);
}
);
layerId = m01;
shapes = (
{
closed = 0;
nodes = (
(50,600,l),
(50,92,ls),
(50,39,o),
(88,0,o),
(140,0,cs),
(192,0,o),
(230,39,o),
(230,92,cs),
(230,600,l),
(330,600,l)
);
},
{
closed = 1;
nodes = (
(330,92,ls),
(330,39,o),
(368,0,o),
(420,0,cs),
(472,0,o),
(510,39,o),
(510,92,cs),
(510,600,l),
(330,600,l)
);
}
);
width = 560;
}
);
metricLeft = "ca-tamil";
metricRight = "ca-tamil";
unicode = 2998;
},
{
glyphname = "ssa-tamil";
lastChange = "2023-04-05 09:38:44 +0000";
layers = (
{
anchors = (
{
name = imatra;
pos = (450,280);
},
{
name = top;
pos = (330,600);
}
);
layerId = m01;
shapes = (
{
pos = (50,196);
ref = chinnaVattam;
},
{
closed = 0;
nodes = (
(610,0,l),
(110,0,ls),
(81,0,o),
(59,21,o),
(59,50,cs),
(59,79,o),
(81,100,o),
(110,100,cs),
(198,100,ls),
(269,100,o),
(320,151,o),
(320,222,cs),
(320,478,ls),
(320,549,o),
(269,600,o),
(198,600,cs),
(172,600,ls),
(101,600,o),
(50,549,o),
(50,478,cs),
(50,295,l)
);
},
{
closed = 0;
nodes = (
(530,0,l),
(530,198,ls),
(530,246,o),
(496,280,o),
(450,280,cs),
(404,280,o),
(370,246,o),
(370,198,cs),
(370,82,ls),
(370,34,o),
(404,0,o),
(444,0,cs),
(530,0,l),
(530,-297,l)
);
}
);
width = 660;
}
);
metricLeft = "ca-tamil";
metricRight = "ca-tamil";
unicode = 2999;
},
{
glyphname = "sa-tamil";
lastChange = "2023-04-05 09:38:57 +0000";
layers = (
{
anchors = (
{
name = imatra;
pos = (507,600);
},
{
name = top;
pos = (384,600);
}
);
layerId = m01;
shapes = (
{
pos = (95,0);
ref = chinnaVattam;
},
{
closed = 0;
nodes = (
(317,76,l),
(317,473,ls),
(317,552,o),
(264,600,o),
(196,600,cs),
(172,600,ls),
(101,600,o),
(50,549,o),
(50,478,cs),
(50,122,ls),
(50,51,o),
(102,0,o),
(172,0,c)
);
},
{
closed = 0;
nodes = (
(507,600,l),
(533,600,ls),
(577,600,o),
(609,567,o),
(609,523,cs),
(609,76,ls),
(609,32,o),
(577,0,o),
(534,0,cs),
(491,0,o),
(459,32,o),
(459,76,cs),
(459,524,ls),
(459,568,o),
(427,600,o),
(384,600,cs),
(341,600,o),
(309,568,o),
(309,524,c)
);
}
);
width = 659;
}
);
metricLeft = "ca-tamil";
metricRight = "ca-tamil";
unicode = 3000;
},
{
glyphname = "ha-tamil";
lastChange = "2023-04-05 09:39:04 +0000";
layers = (
{
anchors = (
{
name = imatra;
pos = (631,601);
},
{
name = top;
pos = (400,600);
}
);
layerId = m01;
shapes = (
{
pos = (50,196);
ref = chinnaVattam;
},
{
closed = 0;
nodes = (
(550,120,l),
(550,524,ls),
(550,568,o),
(518,600,o),
(475,600,cs),
(432,600,o),
(400,568,o),
(400,524,cs),
(400,0,l),
(110,0,ls),
(81,0,o),
(59,21,o),
(59,50,cs),
(59,79,o),
(81,100,o),
(110,100,cs),
(198,100,ls),
(269,100,o),
(320,151,o),
(320,222,cs),
(320,478,ls),
(320,549,o),
(269,600,o),
(198,600,cs),
(172,600,ls),
(101,600,o),
(50,549,o),
(50,478,cs),
(50,295,l)
);
},
{
closed = 0;
nodes = (
(370,-301,l),
(370,-214,ls),
(370,-117,o),
(435,-52,o),
(523,-52,cs),
(572,-52,ls),
(699,-52,o),
(730,1,o),
(730,225,cs),
(730,369,ls),
(730,506,o),
(725,601,o),
(631,601,cs),
(571,601,o),
(550,561,o),
(550,516,c)
);
}
);
width = 780;
}
);
metricLeft = "ca-tamil";
metricRight = "ca-tamil";
unicode = 3001;
},
{
glyphname = "aytham-tamil";
lastChange = "2023-03-18 09:16:41 +0000";
layers = (
{
layerId = m01;
shapes = (
{
closed = 1;
nodes = (
(522,0,o),
(550,28,o),
(550,60,cs),
(550,92,o),
(522,120,o),
(490,120,cs),
(458,120,o),
(430,92,o),
(430,60,cs),
(430,28,o),
(458,0,o),
(490,0,cs)
);
},
{
closed = 1;
nodes = (
(332,400,o),
(360,428,o),
(360,460,cs),
(360,492,o),
(332,520,o),
(300,520,cs),
(268,520,o),
(240,492,o),
(240,460,cs),
(240,428,o),
(268,400,o),
(300,400,cs)
);
},
{
closed = 1;
nodes = (
(142,0,o),
(170,28,o),
(170,60,cs),
(170,92,o),
(142,120,o),
(110,120,cs),
(78,120,o),
(50,92,o),
(50,60,cs),
(50,28,o),
(78,0,o),
(110,0,cs)
);
}
);
width = 600;
}
);
metricLeft = "ca-tamil";
metricRight = "ca-tamil";
unicode = 2947;
},
{
glyphname = "a-tamil.001";
lastChange = "2022-11-26 01:20:23 +0000";
layers = (
{
layerId = m01;
shapes = (
{
closed = 1;
nodes = (
(102,307,o),
(84,335,o),
(84,397,cs),
(84,459,o),
(102,487,o),
(144,487,cs),
(186,487,o),
(204,459,o),
(204,397,cs),
(204,335,o),
(186,307,o),
(144,307,cs)
);
},
{
closed = 0;
nodes = (
(82,399,l),
(98,548,o),
(147,591,o),
(269,591,cs),
(399,591,o),
(449,522,o),
(449,297,cs),
(449,47,o),
(394,-3,o),
(249,-3,cs),
(111,-3,o),
(56,47,o),
(50,230,c),
(526,230,l)
);
},
{
closed = 0;
nodes = (
(526,515,l),
(526,3,l)
);
}
);
width = 576;
}
);
},
{
glyphname = "a-tamil.002";
layers = (
{
layerId = m01;
shapes = (
{
closed = 1;
nodes = (
(98,291,o),
(69,322,o),
(69,391,cs),
(69,460,o),
(98,491,o),
(144,491,cs),
(190,491,o),
(219,460,o),
(219,391,cs),
(219,322,o),
(190,291,o),
(144,291,cs)
);
},
{
closed = 0;
nodes = (
(67,389,l),
(67,509,o),
(118,591,o),
(234,591,cs),
(367,591,o),
(414,488,o),
(414,297,cs),
(414,70,o),
(313,-3,o),
(201,-3,cs),
(95,-3,o),
(-2,70,o),
(30,169,cs),
(49,229,o),
(130,232,o),
(207,233,cs),
(313,234,o),
(422,235,o),
(481,234,c)
);
},
{
closed = 0;
nodes = (
(481,446,l),
(481,4,l)
);
}
);
width = 531;
}
);
},
{
glyphname = "a-tamil.003";
lastChange = "2022-11-26 01:26:17 +0000";
layers = (
{
layerId = m01;
shapes = (
{
closed = 1;
nodes = (
(124,274,o),
(92,308,o),
(92,383,cs),
(92,459,o),
(124,493,o),
(175,493,cs),
(225,493,o),
(257,459,o),
(257,383,cs),
(257,308,o),
(225,274,o),
(175,274,cs)
);
},
{
closed = 0;
nodes = (
(92,389,l),
(92,538,o),
(137,591,o),
(259,591,cs),
(394,591,o),
(439,518,o),
(439,297,cs),
(439,72,o),
(389,-3,o),
(249,-3,cs),
(96,-3,o),
(56,53,o),
(50,220,c),
(516,220,l)
);
},
{
closed = 0;
nodes = (
(516,446,l),
(516,4,l)
);
}
);
width = 576;
}
);
},
{
glyphname = "ii-tamil.001";
layers = (
{
layerId = m01;
shapes = (
{
pos = (0,600);
ref = "pa-tamil";
scale = (1,-1);
},
{
closed = 0;
nodes = (
(361,556,l)
);
},
{
closed = 1;
nodes = (
(241,225,o),
(275,259,o),
(275,300,cs),
(275,341,o),
(241,375,o),
(200,375,cs),
(159,375,o),
(125,341,o),
(125,300,cs),
(125,259,o),
(159,225,o),
(200,225,cs)
);
}
);
width = 400;
}
);
metricLeft = "ca-tamil";
metricRight = "ca-tamil";
},
{
glyphname = "ten-tamil";
lastChange = "2023-04-04 13:52:05 +0000";
layers = (
{
layerId = m01;
shapes = (
{
closed = 0;
nodes = (
(50,490,l),
(50,92,ls),
(50,39,o),
(88,0,o),
(140,0,cs),
(192,0,o),
(230,39,o),
(230,92,c)
);
},
{
closed = 0;
nodes = (
(230,490,l),
(230,92,l),
(230,39,o),
(268,0,o),
(320,0,cs),
(372,0,o),
(410,39,o),
(410,92,cs),
(410,608,ls),
(410,661,o),
(371,700,o),
(318,700,cs),
(252,700,ls),
(199,700,o),
(160,661,o),
(160,608,cs),
(160,600,l)
);
}
);
width = 460;
}
);
metricLeft = "ca-tamil";
metricRight = "ca-tamil";
unicode = 3056;
},
{
glyphname = "onehundred-tamil";
lastChange = "2023-04-04 13:53:12 +0000";
layers = (
{
layerId = m01;
shapes = (
{
closed = 0;
nodes = (
(317,0,l),
(317,473,ls),
(317,552,o),
(264,600,o),
(196,600,cs),
(172,600,ls),
(101,600,o),
(50,549,o),
(50,478,cs),
(50,0,ls)
);
},
{
closed = 0;
nodes = (
(497,0,l),
(497,600,l),
(317,600,l),
(317,0,l)
);
},
{
closed = 0;
nodes = (
(577,600,l),
(497,600,l)
);
}
);
width = 627;
}
);
metricLeft = "ca-tamil";
metricRight = "ca-tamil";
unicode = 3057;
},
{
glyphname = "onethousand-tamil";
lastChange = "2023-04-04 14:13:40 +0000";
layers = (
{
layerId = m01;
shapes = (
{
pos = (-50,0);
ref = chaMelPaadi;
},
{
closed = 0;
nodes = (
(250,350,l),
(460,350,l)
);
},
{
pos = (51,0);
ref = chaKeezhPaadi;
},
{
closed = 0;
nodes = (
(295,-180,l),
(295,-128,ls),
(295,-75,o),
(334,-36,o),
(387,-36,cs),
(416,-36,ls),
(482,-36,o),
(511,10,o),
(511,87,cs),
(511,168,o),
(486,210,o),
(428,210,cs),
(357,210,ls),
(322,210,o),
(296,184,o),
(296,149,cs),
(296,61,ls),
(296,26,o),
(322,0,o),
(356,0,cs),
(390,0,o),
(416,26,o),
(416,61,cs),
(416,350,l)
);
}
);
width = 600;
}
);
unicode = 3058;
},
{
glyphname = "zero-tamil";
lastChange = "2023-03-23 04:50:27 +0000";
layers = (
{
layerId = m01;
shapes = (
{
closed = 1;
nodes = (
(227,0,ls),
(315,0,o),
(380,65,o),
(380,153,cs),
(380,447,ls),
(380,535,o),
(315,600,o),
(227,600,cs),
(215,600,l),
(203,600,ls),
(115,600,o),
(50,535,o),
(50,447,cs),
(50,153,ls),
(50,65,o),
(115,0,o),
(203,0,cs)
);
}
);
width = 430;
}
);
metricLeft = "ca-tamil";
metricRight = "ca-tamil";
unicode = 3046;
},
{
glyphname = "one-tamil";
lastChange = "2023-03-23 04:42:01 +0000";
layers = (
{
layerId = m01;
shapes = (
{
pos = (-50,0);
ref = chaMelPaadi;
},
{
pos = (50,0);
ref = chaKeezhPaadi;
},
{
closed = 0;
nodes = (
(398,445,l)
);
},
{
pos = (231,0);
ref = kaKeezhPaadi;
}
);
width = 460;
}
);
metricLeft = "ca-tamil";
metricRight = "ca-tamil";
unicode = 3047;
},
{
glyphname = "two-tamil";
lastChange = "2023-03-23 04:43:14 +0000";
layers = (
{
layerId = m01;
shapes = (
{
pos = (50,196);
ref = chinnaVattam;
},
{
closed = 0;
nodes = (
(470,0,l),
(110,0,ls),
(81,0,o),
(59,21,o),
(59,50,cs),
(59,79,o),
(81,100,o),
(110,100,cs),
(198,100,ls),
(269,100,o),
(320,151,o),
(320,222,cs),
(320,478,ls),
(320,549,o),
(269,600,o),
(198,600,cs),
(172,600,ls),
(101,600,o),
(50,549,o),
(50,478,cs),
(50,295,l)
);
}
);
width = 520;
}
);
metricLeft = "ca-tamil";
metricRight = "ca-tamil";
unicode = 3048;
},
{
glyphname = "three-tamil";
lastChange = "2023-03-23 04:43:42 +0000";
layers = (
{
layerId = m01;
shapes = (
{
closed = 0;
nodes = (
(230,150,l),
(230,600,l),
(50,600,l),
(50,0,l)
);
},
{
closed = 0;
nodes = (
(230,600,l),
(360,600,l)
);
},
{
closed = 0;
nodes = (
(230,260,l),
(230,305,o),
(251,345,o),
(311,345,cs),
(410,345,o),
(410,292,o),
(410,155,cs),
(410,51,o),
(379,-2,o),
(252,-2,c),
(510,0,l)
);
}
);
width = 560;
}
);
metricLeft = "ca-tamil";
metricRight = "ca-tamil";
unicode = 3049;
},
{
glyphname = "four-tamil";
lastChange = "2023-03-23 04:44:46 +0000";
layers = (
{
layerId = m01;
shapes = (
{
ref = "ca-tamil";
},
{
closed = 0;
nodes = (
(360,500,l),
(360,350,l)
);
}
);
width = 410;
}
);
metricLeft = "ca-tamil";
metricRight = "ca-tamil";
unicode = 3050;
},
{
glyphname = "five-tamil";
lastChange = "2023-03-23 04:45:03 +0000";
layers = (
{
layerId = m01;
shapes = (
{
closed = 0;
nodes = (
(150,100,l),
(150,600,l),
(330,600,l),
(330,160,l)
);
},
{
closed = 0;
nodes = (
(330,600,l),
(420,600,l)
);
},
{
closed = 0;
nodes = (
(330,232,l),
(330,277,o),
(351,317,o),
(411,317,cs),
(510,317,o),
(510,264,o),
(510,97,cs),
(510,-87,o),
(479,-140,o),
(352,-140,cs),
(203,-140,ls),
(115,-140,o),
(50,-75,o),
(50,13,cs),
(50,627,ls),
(50,715,o),
(115,780,o),
(203,780,cs),
(357,780,ls),
(445,780,o),
(510,715,o),
(510,627,cs),
(510,550,l)
);
}
);
width = 560;
}
);
metricLeft = "ca-tamil";
metricRight = "ca-tamil";
unicode = 3051;
},
{
glyphname = "six-tamil";
lastChange = "2023-04-04 13:56:31 +0000";
layers = (
{
layerId = m01;
shapes = (
{
closed = 0;
nodes = (
(360,0,l),
(360,350,l),
(540,350,l),
(540,0,l)
);
},
{
closed = 0;
nodes = (
(620,350,l),
(540,350,l)
);
},
{
pos = (-50,0);
ref = chaMelPaadi;
},
{
pos = (50,0);
ref = chaKeezhPaadi;
},
{
closed = 0;
nodes = (
(360,240,l),
(360,258,ls),
(360,311,o),
(321,350,o),
(268,350,cs),
(250,350,l)
);
}
);
width = 670;
}
);
metricLeft = "ca-tamil";
metricRight = "ca-tamil";
unicode = 3052;
},
{
glyphname = "seven-tamil";
lastChange = "2023-03-23 04:41:43 +0000";
layers = (
{
layerId = m01;
shapes = (
{
closed = 0;
nodes = (
(370,0,l),
(370,600,l),
(254,600,ls),
(136,600,o),
(50,514,o),
(50,396,cs),
(50,175,l)
);
},
{
pos = (50,50);
ref = naduVattam;
},
{
closed = 0;
nodes = (
(370,600,l),
(490,600,l)
);
}
);
width = 540;
}
);
metricLeft = "ca-tamil";
metricRight = "ca-tamil";
unicode = 3053;
},
{
glyphname = "eight-tamil";
lastChange = "2023-04-04 13:59:47 +0000";
layers = (
{
layerId = m01;
shapes = (
{
closed = 0;
nodes = (
(440,450,l),
(440,0,l)
);
},
{
closed = 1;
nodes = (
(50,250,l),
(50,122,ls),
(50,51,o),
(101,0,o),
(172,0,cs),
(238,0,ls),
(309,0,o),
(360,51,o),
(360,122,cs),
(360,250,l)
);
},
{
closed = 0;
nodes = (
(360,244,l),
(360,478,ls),
(360,549,o),
(309,600,o),
(238,600,cs),
(202,600,ls),
(131,600,o),
(80,549,o),
(80,478,cs),
(80,403,ls),
(80,315,o),
(145,250,o),
(233,250,cs),
(267,250,l)
);
},
{
closed = 0;
nodes = (
(440,250,l),
(360,250,l)
);
}
);
width = 490;
}
);
metricLeft = "ca-tamil";
metricRight = "ca-tamil";
unicode = 3054;
},
{
glyphname = "nine-tamil";
lastChange = "2023-04-04 13:40:58 +0000";
layers = (
{
layerId = m01;
shapes = (
{
pos = (-50,0);
ref = chaMelPaadi;
},
{
pos = (50,0);
ref = chaKeezhPaadi;
},
{
closed = 0;
nodes = (
(250,350,l),
(447,350,ls),
(535,350,o),
(600,285,o),
(600,197,cs),
(600,153,ls),
(600,65,o),
(535,0,o),
(447,0,cs),
(314,0,l)
);
},
{
closed = 1;
nodes = (
(433,160,o),
(464,195,o),
(464,242,cs),
(464,268,ls),
(464,315,o),
(432,350,o),
(389,350,cs),
(346,350,o),
(314,315,o),
(314,268,cs),
(314,242,ls),
(314,195,o),
(346,160,o),
(389,160,cs)
);
}
);
width = 650;
}
);
metricLeft = "ca-tamil";
metricRight = "ca-tamil";
unicode = 3055;
},
{
glyphname = "iiMatra-tamil";
lastChange = "2023-04-05 11:22:35 +0000";
layers = (
{
anchors = (
{
name = _imatra;
pos = (0,592);
},
{
name = top;
pos = (92,800);
}
);
layerId = m01;
shapes = (
{
closed = 0;
nodes = (
(200,708,ls),
(200,761,o),
(161,800,o),
(108,800,cs),
(92,800,ls),
(39,800,o),
(0,761,o),
(0,708,cs),
(0,592,ls)
);
},
{
pos = (100,658);
ref = kokkiVattam;
}
);
width = 200;
}
);
unicode = 3008;
},
{
glyphname = "pulli-tamil";
lastChange = "2023-04-05 09:18:03 +0000";
layers = (
{
anchors = (
{
name = _top;
pos = (300,600);
}
);
layerId = m01;
shapes = (
{
closed = 1;
nodes = (
(332,650,o),
(360,678,o),
(360,710,cs),
(360,742,o),
(332,770,o),
(300,770,cs),
(268,770,o),
(240,742,o),
(240,710,cs),
(240,678,o),
(268,650,o),
(300,650,cs)
);
}
);
width = 600;
}
);
unicode = 3021;
},
{
glyphname = "aaMatra-tamil";
lastChange = "2023-04-05 09:42:01 +0000";
layers = (
{
layerId = m01;
shapes = (
{
closed = 0;
nodes = (
(390,600,l),
(270,600,l)
);
},
{
closed = 0;
nodes = (
(270,0,l),
(270,600,l),
(50,600,l),
(50,0,l)
);
}
);
width = 440;
}
);
metricLeft = "ca-tamil";
metricRight = "ca-tamil";
unicode = 3006;
},
{
glyphname = "iMatra-tamil";
lastChange = "2023-04-05 11:22:59 +0000";
layers = (
{
anchors = (
{
name = _imatra;
pos = (0,600);
}
);
layerId = m01;
shapes = (
{
closed = 0;
nodes = (
(200,0,l),
(200,708,ls),
(200,761,o),
(161,800,o),
(108,800,cs),
(92,800,ls),
(39,800,o),
(0,761,o),
(0,708,cs),
(0,600,l)
);
}
);
width = 200;
}
);
unicode = 3007;
},
{
glyphname = "aiMatra-tamil";
lastChange = "2023-04-05 09:40:02 +0000";
layers = (
{
layerId = m01;
shapes = (
{
pos = (95,0);
ref = chinnaVattam;
},
{
closed = 0;
nodes = (
(172,0,l),
(102,0,o),
(50,51,o),
(50,122,cs),
(50,416,ls),
(50,522,o),
(128,600,o),
(234,600,cs),
(391,600,l)
);
},
{
closed = 0;
nodes = (
(391,600,l),
(340,600,o),
(302,562,o),
(302,511,cs),
(302,89,ls),
(302,38,o),
(339,0,o),
(389,0,cs),
(439,0,o),
(477,38,o),
(477,89,cs),
(477,511,ls),
(477,562,o),
(440,600,o),
(391,600,cs),
(515,600,ls),
(586,600,o),
(637,549,o),
(637,478,cs),
(637,122,ls),
(637,51,o),
(586,0,o),
(515,0,cs),
(503,0,l)
);
}
);
width = 687;
}
);
metricLeft = "ca-tamil";
metricRight = "ca-tamil";
unicode = 3016;
},
{
glyphname = chaKeezhPaadi;
lastChange = "2022-12-01 01:05:03 +0000";
layers = (
{
layerId = m01;
shapes = (
{
closed = 1;
nodes = (
(158,0,o),
(200,43,o),
(200,102,cs),
(200,350,l),
(92,350,ls),
(43,350,o),
(0,307,o),
(0,248,cs),
(0,102,ls),
(0,43,o),
(42,0,o),
(100,0,cs)
);
}
);
width = 200;
}
);
},
{
glyphname = chaMelPaadi;
lastChange = "2022-12-01 01:04:01 +0000";
layers = (
{
layerId = m01;
shapes = (
{
closed = 1;
nodes = (
(180,350,l),
(300,350,l),
(300,600,l),
(180,600,l)
);
},
{
closed = 0;
nodes = (
(300,600,l),
(410,600,l)
);
}
);
width = 450;
}
);
},
{
glyphname = chinnaVattam;
lastChange = "2022-12-02 01:19:22 +0000";
layers = (
{
layerId = m01;
shapes = (
{
closed = 1;
nodes = (
(119,0,o),
(150,35,o),
(150,82,cs),
(150,118,ls),
(150,165,o),
(118,200,o),
(75,200,cs),
(32,200,o),
(0,165,o),
(0,118,cs),
(0,82,ls),
(0,35,o),
(32,0,o),
(75,0,cs)
);
}
);
width = 150;
}
);
},
{
glyphname = kaKeezhPaadi;
lastChange = "2022-12-01 02:29:14 +0000";
layers = (
{
layerId = m01;
shapes = (
{
closed = 0;
nodes = (
(0,19,l),
(21,7,o),
(44,0,o),
(69,0,cs),
(153,0,o),
(179,77,o),
(179,175,cs),
(179,273,o),
(153,350,o),
(59,350,cs),
(19,350,l)
);
}
);
width = 179;
}
);
},
{
glyphname = kokkiVattam;
lastChange = "2022-12-02 02:49:50 +0000";
layers = (
{
layerId = m01;
shapes = (
{
closed = 1;
nodes = (
(77,0,o),
(100,23,o),
(100,50,cs),
(100,77,o),
(77,100,o),
(50,100,cs),
(23,100,o),
(0,77,o),
(0,50,cs),
(0,23,o),
(23,0,o),
(50,0,cs)
);
}
);
width = 100;
}
);
},
{
glyphname = naduVattam;
lastChange = "2022-12-02 01:20:11 +0000";
layers = (
{
layerId = m01;
shapes = (
{
closed = 1;
nodes = (
(143,0,o),
(180,42,o),
(180,98,cs),
(180,142,ls),
(180,198,o),
(142,240,o),
(90,240,cs),
(38,240,o),
(0,198,o),
(0,142,cs),
(0,98,ls),
(0,42,o),
(38,0,o),
(90,0,cs)
);
}
);
width = 180;
}
);
},
{
glyphname = nnaPakkam;
lastChange = "2022-12-24 01:59:08 +0000";
layers = (
{
layerId = m01;
shapes = (
{
closed = 0;
nodes = (
(41,-301,l),
(41,-301,o),
(41,-277,o),
(41,-214,cs),
(41,-117,o),
(106,-52,o),
(194,-52,cs),
(243,-52,ls),
(370,-52,o),
(401,1,o),
(401,155,cs),
(401,292,o),
(401,345,o),
(302,345,cs),
(242,345,o),
(221,305,o),
(221,260,c)
);
}
);
width = 432;
}
);
},
{
glyphname = paadiVattam;
lastChange = "2022-11-26 02:28:40 +0000";
layers = (
{
layerId = m01;
shapes = (
{
closed = 1;
nodes = (
(450,350,l),
(449,85,o),
(387,0,o),
(225,0,cs),
(63,0,o),
(1,85,o),
(0,350,c)
);
}
);
width = 450;
}
);
},
{
glyphname = periyaVattam;
lastChange = "2022-11-26 02:20:52 +0000";
layers = (
{
layerId = m01;
shapes = (
{
closed = 1;
nodes = (
(87,0,o),
(0,93,o),
(0,300,cs),
(0,507,o),
(87,600,o),
(225,600,cs),
(363,600,o),
(450,507,o),
(450,300,cs),
(450,93,o),
(363,0,o),
(225,0,cs)
);
}
);
width = 450;
}
);
},
{
glyphname = taKeezh;
lastChange = "2022-12-01 02:29:49 +0000";
layers = (
{
layerId = m01;
shapes = (
{
closed = 0;
nodes = (
(30,-300,l),
(30,-213,ls),
(30,-125,o),
(95,-60,o),
(183,-60,cs),
(231,-60,ls),
(341,-60,o),
(390,16,o),
(390,145,cs),
(390,280,o),
(348,350,o),
(251,350,cs),
(231,350,l)
);
}
);
width = 422;
}
);
},
{
glyphname = chaKeezhPaadi.001;
layers = (
{
layerId = m01;
shapes = (
{
closed = 1;
nodes = (
(54,0,o),
(20,72,o),
(20,175,cs),
(20,278,o),
(54,350,o),
(130,350,cs),
(226,350,o),
(280,350,o),
(280,350,c),
(280,350,o),
(280,238,o),
(280,215,cs),
(280,85,o),
(218,0,o),
(130,0,cs)
);
}
);
width = 280;
}
);
},
{
glyphname = chinnaVattam.001;
layers = (
{
layerId = m01;
shapes = (
{
closed = 1;
nodes = (
(29,3,o),
(0,34,o),
(0,103,cs),
(0,172,o),
(29,203,o),
(75,203,cs),
(121,203,o),
(150,172,o),
(150,103,cs),
(150,34,o),
(121,3,o),
(75,3,cs)
);
}
);
width = 150;
}
);
},
{
glyphname = kaKeezhPaadi.001;
lastChange = "2022-12-01 01:07:22 +0000";
layers = (
{
layerId = m01;
shapes = (
{
closed = 0;
nodes = (
(0,101,l),
(0,43,o),
(42,0,o),
(100,0,cs),
(158,0,o),
(200,43,o),
(200,102,cs),
(200,248,ls),
(200,307,o),
(157,350,o),
(108,350,cs),
(51,350,l)
);
}
);
width = 200;
}
);
},
{
glyphname = nnaPakkam.001;
layers = (
{
layerId = m01;
shapes = (
{
closed = 0;
nodes = (
(118,-301,l),
(36,-301,o),
(1,-264,o),
(2,-180,cs),
(3,-103,o),
(45,-52,o),
(151,-52,cs),
(170,-52,o),
(221,-52,o),
(243,-52,cs),
(370,-52,o),
(422,1,o),
(422,155,cs),
(422,292,o),
(394,345,o),
(322,345,cs),
(242,345,o),
(221,305,o),
(221,260,c)
);
}
